<svg width="26" height="25" viewBox="0 0 26 25" fill="none" xmlns="http://www.w3.org/2000/svg">
<mask id="mask0_23_764" style="mask-type:alpha" maskUnits="userSpaceOnUse" x="0" y="0" width="26" height="25">
<rect x="0.5" width="25" height="25" fill="#D9D9D9"/>
</mask>
<g mask="url(#mask0_23_764)">
<path d="M12.9998 23.9583L5.49984 18.3333C5.23942 18.1423 5.0356 17.8993 4.88838 17.6041C4.74046 17.309 4.6665 16.9965 4.6665 16.6666V4.16665C4.6665 3.59373 4.87067 3.1031 5.279 2.69477C5.68664 2.28713 6.17692 2.08331 6.74984 2.08331H19.2498C19.8228 2.08331 20.3134 2.28713 20.7217 2.69477C21.1294 3.1031 21.3332 3.59373 21.3332 4.16665V16.6666C21.3332 16.9965 21.2596 17.309 21.1123 17.6041C20.9644 17.8993 20.7603 18.1423 20.4998 18.3333L12.9998 23.9583ZM12.9998 21.3541L19.2498 16.6666V4.16665H6.74984V16.6666L12.9998 21.3541ZM11.9061 15.625L17.7915 9.73956L16.3332 8.22915L11.9061 12.6562L9.71859 10.4687L8.20817 11.9271L11.9061 15.625Z" fill="black"/>
</g>
</svg>
