<svg width="15" height="16" viewBox="0 0 15 16" fill="none" xmlns="http://www.w3.org/2000/svg">
<mask id="mask0_23_744" style="mask-type:alpha" maskUnits="userSpaceOnUse" x="0" y="0" width="15" height="16">
<rect y="0.166626" width="15" height="15" fill="#D9D9D9"/>
</mask>
<g mask="url(#mask0_23_744)">
<path d="M3.125 12.0416H4L9.39062 6.651L8.51562 5.776L3.125 11.1666V12.0416ZM12.0625 5.74475L9.40625 3.11975L10.2812 2.24475C10.5208 2.00517 10.8152 1.88538 11.1644 1.88538C11.5131 1.88538 11.8073 2.00517 12.0469 2.24475L12.9219 3.11975C13.1615 3.35933 13.2865 3.6485 13.2969 3.98725C13.3073 4.32558 13.1927 4.61454 12.9531 4.85413L12.0625 5.74475ZM11.1562 6.66663L4.53125 13.2916H1.875V10.6354L8.5 4.01038L11.1562 6.66663Z" fill="black"/>
</g>
</svg>
